<svg xmlns="http://www.w3.org/2000/svg" viewBox="0 0 100 100">
  <polygon points="49.00,48.00 47.82,51.38 44.24,51.45 47.10,53.62 46.06,57.05 49.00,55.00 51.94,57.05 50.90,53.62 53.76,51.45 50.18,51.38" fill="white"/>
  <polygon points="5.00,28.00 3.82,31.38 0.24,31.45 3.10,33.62 2.06,37.05 5.00,35.00 7.94,37.05 6.90,33.62 9.76,31.45 6.18,31.38" fill="white"/>
  <polygon points="65.00,57.00 63.82,60.38 60.24,60.45 63.10,62.62 62.06,66.05 65.00,64.00 67.94,66.05 66.90,62.62 69.76,60.45 66.18,60.38" fill="white"/>
  <polygon points="51.00,33.00 49.82,36.38 46.24,36.45 49.10,38.62 48.06,42.05 51.00,40.00 53.94,42.05 52.90,38.62 55.76,36.45 52.18,36.38" fill="white"/>
  <polygon points="61.00,40.00 59.82,43.38 56.24,43.45 59.10,45.62 58.06,49.05 61.00,47.00 63.94,49.05 62.90,45.62 65.76,43.45 62.18,43.38" fill="white"/>
</svg>
