<svg xmlns="http://www.w3.org/2000/svg" viewBox="0 0 100 100">
  <polygon points="7.00,2.00 4.65,7.76 -1.56,8.22 3.20,12.24 1.71,18.28 7.00,15.00 12.29,18.28 10.80,12.24 15.56,8.22 9.35,7.76" fill="white"/>
  <polygon points="10.00,37.00 7.65,42.76 1.44,43.22 6.20,47.24 4.71,53.28 10.00,50.00 15.29,53.28 13.80,47.24 18.56,43.22 12.35,42.76" fill="white"/>
  <polygon points="21.00,76.00 18.65,81.76 12.44,82.22 17.20,86.24 15.71,92.28 21.00,89.00 26.29,92.28 24.80,86.24 29.56,82.22 23.35,81.76" fill="white"/>
  <polygon points="39.00,23.00 36.65,28.76 30.44,29.22 35.20,33.24 33.71,39.28 39.00,36.00 44.29,39.28 42.80,33.24 47.56,29.22 41.35,28.76" fill="white"/>
  <polygon points="77.00,18.00 74.65,23.76 68.44,24.22 73.20,28.24 71.71,34.28 77.00,31.00 82.29,34.28 80.80,28.24 85.56,24.22 79.35,23.76" fill="white"/>
  <polygon points="77.00,-5.00 74.65,0.76 68.44,1.22 73.20,5.24 71.71,11.28 77.00,8.00 82.29,11.28 80.80,5.24 85.56,1.22 79.35,0.76" fill="white"/>
  <polygon points="74.00,78.00 71.65,83.76 65.44,84.22 70.20,88.24 68.71,94.28 74.00,91.00 79.29,94.28 77.80,88.24 82.56,84.22 76.35,83.76" fill="white"/>
  <polygon points="20.00,46.00 17.65,51.76 11.44,52.22 16.20,56.24 14.71,62.28 20.00,59.00 25.29,62.28 23.80,56.24 28.56,52.22 22.35,51.76" fill="white"/>
</svg>
