<svg xmlns="http://www.w3.org/2000/svg" viewBox="0 0 100 100">
  <polygon points="17.00,65.00 15.24,69.57 10.34,69.84 14.15,72.93 12.89,77.66 17.00,75.00 21.11,77.66 19.85,72.93 23.66,69.84 18.76,69.57" fill="white"/>
  <polygon points="8.00,25.00 6.24,29.57 1.34,29.84 5.15,32.93 3.89,37.66 8.00,35.00 12.11,37.66 10.85,32.93 14.66,29.84 9.76,29.57" fill="white"/>
  <polygon points="15.00,56.00 13.24,60.57 8.34,60.84 12.15,63.93 10.89,68.66 15.00,66.00 19.11,68.66 17.85,63.93 21.66,60.84 16.76,60.57" fill="white"/>
  <polygon points="57.00,53.00 55.24,57.57 50.34,57.84 54.15,60.93 52.89,65.66 57.00,63.00 61.11,65.66 59.85,60.93 63.66,57.84 58.76,57.57" fill="white"/>
  <polygon points="83.00,41.00 81.24,45.57 76.34,45.84 80.15,48.93 78.89,53.66 83.00,51.00 87.11,53.66 85.85,48.93 89.66,45.84 84.76,45.57" fill="white"/>
  <polygon points="26.00,5.00 24.24,9.57 19.34,9.84 23.15,12.93 21.89,17.66 26.00,15.00 30.11,17.66 28.85,12.93 32.66,9.84 27.76,9.57" fill="white"/>
  <polygon points="62.00,-4.00 60.24,0.57 55.34,0.84 59.15,3.93 57.89,8.66 62.00,6.00 66.11,8.66 64.85,3.93 68.66,0.84 63.76,0.57" fill="white"/>
</svg>
